<?xml version="1.0" encoding="utf-8"?>
<!-- Generator: Adobe Illustrator 16.0.0, SVG Export Plug-In . SVG Version: 6.00 Build 0)  -->
<!DOCTYPE svg PUBLIC "-//W3C//DTD SVG 1.1//EN" "http://www.w3.org/Graphics/SVG/1.1/DTD/svg11.dtd">
<svg version="1.1" id="E-Commerce" xmlns="http://www.w3.org/2000/svg" xmlns:xlink="http://www.w3.org/1999/xlink" x="0px" y="0px"
	 width="512px" height="512px" viewBox="0 0 512 512" enable-background="new 0 0 512 512" xml:space="preserve">
<circle id="Background_20_" fill="#43536C" cx="256" cy="256" r="256"/>
<path id="Shadow_21_" opacity="0.1" d="M511.291,275.105l-147.52-146.754l-3.441,0.568l-17.201-17.091L148.306,410.348
	L248.93,511.898c2.35,0.064,4.706,0.102,7.07,0.102C390.958,512,501.518,407.566,511.291,275.105z"/>
<g id="E-Commerce_1_">
	<rect x="175.628" y="102.073" fill="#91DEE8" width="66.624" height="66.2"/>
	<rect x="242.252" y="111.383" fill="#F6D23D" width="101.363" height="66.201"/>
	<rect x="147.919" y="127.932" fill="#F47F74" width="216.162" height="281.995"/>
	<rect x="147.919" y="127.932" fill="#F04B5E" width="216.162" height="18.428"/>
	<circle fill="#43536C" cx="206.269" cy="141.588" r="8.144"/>
	<circle fill="#43536C" cx="307.69" cy="141.588" r="8.144"/>
	<path fill="#E6E7E8" d="M256.521,256.548c-30.002,0-54.409-24.407-54.409-54.408v-64.137h7.403v64.137
		c0,25.919,21.086,47.006,47.006,47.006c25.918,0,47.005-21.087,47.005-47.006v-64.137h7.403v64.137
		C310.93,232.141,286.521,256.548,256.521,256.548z"/>
	<rect x="147.919" y="394.86" fill="#F04B5E" width="216.162" height="15.066"/>
</g>
</svg>
